# xmcd
#
# Track frame offsets: 
#        150
#        15436
#        25116
#        41888
#        65845
#        77220
#        86606
#        102340
#        118606
#        135903
#        150734
#        164167
#        181324
#        198929
#        209248
#        224521
#        236703
#        247788
#        269393
#
# Disc length: 3855 seconds
#
# Revision: 0
# Processed by: cddbd v1.5.2PL0 Copyright (c) Steve Scherf et al.
# Submitted via: ExactAudioCopy v0.99pb5
#
DISCID=120f0d13
DTITLE=Андрей Веренок - Прости, Остоженка !
DYEAR=2006
DGENRE=Folklore
TTITLE0=Зоотехник Каблуков
TTITLE1=Остывает ужин...
TTITLE2=Январским вечером
TTITLE3=Прости, Остоженка !
TTITLE4=Я люблю язык подворотен
TTITLE5=Щегольнуть необычным поступком...
TTITLE6=Грязью быта строчки песен заляпаны...
TTITLE7=Молча стою у подножья Останкинской башни...
TTITLE8=Песня о владелице табачной лавки (посвящается Зинаиде Славиной
TTITLE8=)
TTITLE9=Накануне века
TTITLE10=Застава Ильича
TTITLE11=Где-то шумят поезда...
TTITLE12=Возле рынка жарят шашлыки...
TTITLE13=Грежу целый день тобой...
TTITLE14=Конечно же, напрасно...
TTITLE15=Лишь в утробе был я кротким святошей...
TTITLE16=Ветер да темень...
TTITLE17=В ненастный день...
TTITLE18=Я шагаю по Арбату
EXTD=
EXTT0=
EXTT1=
EXTT2=
EXTT3=
EXTT4=
EXTT5=
EXTT6=
EXTT7=
EXTT8=
EXTT9=
EXTT10=
EXTT11=
EXTT12=
EXTT13=
EXTT14=
EXTT15=
EXTT16=
EXTT17=
EXTT18=
PLAYORDER=
